<mxfile host="Electron" agent="Mozilla/5.0 (Windows NT 10.0; Win64; x64) AppleWebKit/537.36 (KHTML, like Gecko) draw.io/28.1.2 Chrome/138.0.7204.243 Electron/37.4.0 Safari/537.36" version="28.1.2">
  <diagram name="Page-1" id="F-9dRWje0LVhVLcEY1ra">
    <mxGraphModel dx="1716" dy="1104" grid="1" gridSize="10" guides="1" tooltips="1" connect="1" arrows="1" fold="1" page="1" pageScale="1" pageWidth="2000" pageHeight="2000" math="0" shadow="0">
      <root>
        <mxCell id="0" />
        <mxCell id="1" parent="0" />
        <mxCell id="IBpTmxL7tBnuTXEfbDv2-6" value="&lt;span style=&quot;font-size: 15px;&quot;&gt;&lt;b&gt;&amp;nbsp;Bronze Layer&lt;/b&gt;&lt;/span&gt;" style="rounded=0;whiteSpace=wrap;html=1;fillColor=#ffcc99;strokeColor=#36393d;" parent="1" vertex="1">
          <mxGeometry x="470" y="270" width="120" height="30" as="geometry" />
        </mxCell>
        <mxCell id="IBpTmxL7tBnuTXEfbDv2-7" value="" style="rounded=1;whiteSpace=wrap;html=1;fillColor=none;strokeColor=light-dark(#f5a029, #babdc0);perimeterSpacing=0;" parent="1" vertex="1">
          <mxGeometry x="430" y="315" width="240" height="465" as="geometry" />
        </mxCell>
        <mxCell id="IBpTmxL7tBnuTXEfbDv2-58" style="edgeStyle=orthogonalEdgeStyle;rounded=0;orthogonalLoop=1;jettySize=auto;html=1;entryX=0;entryY=0.75;entryDx=0;entryDy=0;" parent="1" source="IBpTmxL7tBnuTXEfbDv2-12" target="IBpTmxL7tBnuTXEfbDv2-47" edge="1">
          <mxGeometry relative="1" as="geometry" />
        </mxCell>
        <mxCell id="IBpTmxL7tBnuTXEfbDv2-59" style="edgeStyle=orthogonalEdgeStyle;rounded=0;orthogonalLoop=1;jettySize=auto;html=1;entryX=0;entryY=0.5;entryDx=0;entryDy=0;" parent="1" source="IBpTmxL7tBnuTXEfbDv2-12" target="IBpTmxL7tBnuTXEfbDv2-44" edge="1">
          <mxGeometry relative="1" as="geometry" />
        </mxCell>
        <mxCell id="IBpTmxL7tBnuTXEfbDv2-12" value="&lt;b&gt;CRM&lt;/b&gt;" style="image;aspect=fixed;html=1;points=[];align=center;fontSize=12;image=img/lib/azure2/general/Folder_Blank.svg;" parent="1" vertex="1">
          <mxGeometry x="170" y="395" width="69" height="56.00000000000001" as="geometry" />
        </mxCell>
        <mxCell id="IBpTmxL7tBnuTXEfbDv2-13" value="" style="verticalLabelPosition=bottom;html=1;verticalAlign=top;align=center;strokeColor=none;fillColor=#00BEF2;shape=mxgraph.azure.cloud_services_configuration_file;pointerEvents=1;" parent="1" vertex="1">
          <mxGeometry x="219" y="435" width="31" height="30" as="geometry" />
        </mxCell>
        <mxCell id="IBpTmxL7tBnuTXEfbDv2-14" value="" style="rounded=0;whiteSpace=wrap;html=1;fillColor=none;dashed=1;dashPattern=1 2;" parent="1" vertex="1">
          <mxGeometry x="108.93" y="230" width="160" height="580" as="geometry" />
        </mxCell>
        <mxCell id="IBpTmxL7tBnuTXEfbDv2-15" value="&lt;b&gt;ERP&lt;/b&gt;" style="image;aspect=fixed;html=1;points=[];align=center;fontSize=12;image=img/lib/azure2/general/Folder_Blank.svg;" parent="1" vertex="1">
          <mxGeometry x="161.07" y="612.75" width="73.93" height="60" as="geometry" />
        </mxCell>
        <mxCell id="IBpTmxL7tBnuTXEfbDv2-16" value="" style="verticalLabelPosition=bottom;html=1;verticalAlign=top;align=center;strokeColor=none;fillColor=#00BEF2;shape=mxgraph.azure.cloud_services_configuration_file;pointerEvents=1;" parent="1" vertex="1">
          <mxGeometry x="211.07" y="662.75" width="30" height="30" as="geometry" />
        </mxCell>
        <mxCell id="IBpTmxL7tBnuTXEfbDv2-43" value="&lt;b&gt;&lt;font face=&quot;Times New Roman&quot; style=&quot;font-size: 36px;&quot;&gt;DATA FLOW DIAGRAM&lt;/font&gt;&lt;/b&gt;" style="text;html=1;align=center;verticalAlign=middle;resizable=0;points=[];autosize=1;strokeColor=none;fillColor=none;" parent="1" vertex="1">
          <mxGeometry x="127.5" y="30" width="430" height="60" as="geometry" />
        </mxCell>
        <mxCell id="IBpTmxL7tBnuTXEfbDv2-44" value="&lt;span style=&quot;font-size: 15px;&quot;&gt;&lt;b&gt;crm_sales_details&lt;/b&gt;&lt;/span&gt;" style="rounded=1;whiteSpace=wrap;html=1;fillColor=#ffcc99;strokeColor=#36393d;" parent="1" vertex="1">
          <mxGeometry x="440" y="337.75" width="220" height="42.25" as="geometry" />
        </mxCell>
        <mxCell id="xfqVQyS9T09THIxKPvPr-18" style="edgeStyle=orthogonalEdgeStyle;rounded=0;orthogonalLoop=1;jettySize=auto;html=1;" parent="1" source="IBpTmxL7tBnuTXEfbDv2-47" edge="1">
          <mxGeometry relative="1" as="geometry">
            <mxPoint x="780" y="408.875" as="targetPoint" />
          </mxGeometry>
        </mxCell>
        <mxCell id="IBpTmxL7tBnuTXEfbDv2-47" value="&lt;span style=&quot;font-size: 15px;&quot;&gt;&lt;b&gt;crm_cust_info&lt;/b&gt;&lt;/span&gt;" style="rounded=1;whiteSpace=wrap;html=1;fillColor=#ffcc99;strokeColor=#36393d;" parent="1" vertex="1">
          <mxGeometry x="440" y="387.75" width="220" height="42.25" as="geometry" />
        </mxCell>
        <mxCell id="IBpTmxL7tBnuTXEfbDv2-48" style="edgeStyle=orthogonalEdgeStyle;rounded=0;orthogonalLoop=1;jettySize=auto;html=1;exitX=0.5;exitY=1;exitDx=0;exitDy=0;" parent="1" source="IBpTmxL7tBnuTXEfbDv2-47" target="IBpTmxL7tBnuTXEfbDv2-47" edge="1">
          <mxGeometry relative="1" as="geometry" />
        </mxCell>
        <mxCell id="IBpTmxL7tBnuTXEfbDv2-49" value="&lt;span style=&quot;font-size: 15px;&quot;&gt;&lt;b&gt;crm_prod_info&lt;/b&gt;&lt;/span&gt;" style="rounded=1;whiteSpace=wrap;html=1;fillColor=#ffcc99;strokeColor=#36393d;" parent="1" vertex="1">
          <mxGeometry x="440" y="440" width="220" height="42.25" as="geometry" />
        </mxCell>
        <mxCell id="IBpTmxL7tBnuTXEfbDv2-1" value="&lt;b&gt;&lt;font style=&quot;font-size: 19px;&quot;&gt;Sources&lt;/font&gt;&lt;/b&gt;" style="rounded=0;whiteSpace=wrap;html=1;strokeColor=none;fontSize=20;glass=0;" parent="1" vertex="1">
          <mxGeometry x="133.93" y="195" width="110" height="60" as="geometry" />
        </mxCell>
        <mxCell id="IBpTmxL7tBnuTXEfbDv2-56" style="edgeStyle=orthogonalEdgeStyle;rounded=0;orthogonalLoop=1;jettySize=auto;html=1;exitX=0.5;exitY=1;exitDx=0;exitDy=0;" parent="1" source="IBpTmxL7tBnuTXEfbDv2-44" target="IBpTmxL7tBnuTXEfbDv2-44" edge="1">
          <mxGeometry relative="1" as="geometry" />
        </mxCell>
        <mxCell id="IBpTmxL7tBnuTXEfbDv2-60" style="edgeStyle=orthogonalEdgeStyle;rounded=0;orthogonalLoop=1;jettySize=auto;html=1;entryX=0.015;entryY=0.325;entryDx=0;entryDy=0;entryPerimeter=0;" parent="1" source="IBpTmxL7tBnuTXEfbDv2-12" target="IBpTmxL7tBnuTXEfbDv2-7" edge="1">
          <mxGeometry relative="1" as="geometry" />
        </mxCell>
        <mxCell id="IBpTmxL7tBnuTXEfbDv2-61" value="&lt;span style=&quot;font-size: 15px;&quot;&gt;&lt;b&gt;erp_cust_az12&lt;/b&gt;&lt;/span&gt;" style="rounded=1;whiteSpace=wrap;html=1;fillColor=#ffcc99;strokeColor=#36393d;" parent="1" vertex="1">
          <mxGeometry x="440" y="570" width="220" height="42.25" as="geometry" />
        </mxCell>
        <mxCell id="IBpTmxL7tBnuTXEfbDv2-62" value="&lt;span style=&quot;font-size: 15px;&quot;&gt;&lt;b&gt;erp_loc_a101&lt;/b&gt;&lt;/span&gt;" style="rounded=1;whiteSpace=wrap;html=1;fillColor=#ffcc99;strokeColor=#36393d;" parent="1" vertex="1">
          <mxGeometry x="440" y="617.75" width="220" height="42.25" as="geometry" />
        </mxCell>
        <mxCell id="IBpTmxL7tBnuTXEfbDv2-63" value="&lt;span style=&quot;font-size: 15px;&quot;&gt;&lt;b&gt;erp_px_cat_g1v2&lt;/b&gt;&lt;/span&gt;" style="rounded=1;whiteSpace=wrap;html=1;fillColor=#ffcc99;strokeColor=#36393d;" parent="1" vertex="1">
          <mxGeometry x="440" y="667.75" width="220" height="42.25" as="geometry" />
        </mxCell>
        <mxCell id="IBpTmxL7tBnuTXEfbDv2-64" style="edgeStyle=orthogonalEdgeStyle;rounded=0;orthogonalLoop=1;jettySize=auto;html=1;entryX=0.005;entryY=0.705;entryDx=0;entryDy=0;entryPerimeter=0;" parent="1" source="IBpTmxL7tBnuTXEfbDv2-15" target="IBpTmxL7tBnuTXEfbDv2-7" edge="1">
          <mxGeometry relative="1" as="geometry" />
        </mxCell>
        <mxCell id="IBpTmxL7tBnuTXEfbDv2-65" style="edgeStyle=orthogonalEdgeStyle;rounded=0;orthogonalLoop=1;jettySize=auto;html=1;entryX=0;entryY=0.609;entryDx=0;entryDy=0;entryPerimeter=0;" parent="1" source="IBpTmxL7tBnuTXEfbDv2-15" target="IBpTmxL7tBnuTXEfbDv2-7" edge="1">
          <mxGeometry relative="1" as="geometry" />
        </mxCell>
        <mxCell id="IBpTmxL7tBnuTXEfbDv2-66" style="edgeStyle=orthogonalEdgeStyle;rounded=0;orthogonalLoop=1;jettySize=auto;html=1;entryX=0;entryY=0.817;entryDx=0;entryDy=0;entryPerimeter=0;" parent="1" source="IBpTmxL7tBnuTXEfbDv2-15" target="IBpTmxL7tBnuTXEfbDv2-7" edge="1">
          <mxGeometry relative="1" as="geometry" />
        </mxCell>
        <mxCell id="xfqVQyS9T09THIxKPvPr-1" value="&lt;span style=&quot;font-size: 15px;&quot;&gt;&lt;b&gt;&amp;nbsp;Silver Layer&lt;/b&gt;&lt;/span&gt;" style="rounded=0;whiteSpace=wrap;html=1;fillColor=#f5f5f5;strokeColor=#666666;fontColor=#333333;" parent="1" vertex="1">
          <mxGeometry x="830" y="270" width="120" height="30" as="geometry" />
        </mxCell>
        <mxCell id="xfqVQyS9T09THIxKPvPr-2" value="" style="rounded=1;whiteSpace=wrap;html=1;fillColor=none;strokeColor=#666666;perimeterSpacing=0;fontColor=#333333;" parent="1" vertex="1">
          <mxGeometry x="790" y="315" width="240" height="465" as="geometry" />
        </mxCell>
        <mxCell id="xfqVQyS9T09THIxKPvPr-3" value="&lt;span style=&quot;font-size: 15px;&quot;&gt;&lt;b&gt;crm_sales_details&lt;/b&gt;&lt;/span&gt;" style="rounded=1;whiteSpace=wrap;html=1;fillColor=#f5f5f5;strokeColor=#666666;fontColor=#333333;" parent="1" vertex="1">
          <mxGeometry x="800" y="337.75" width="220" height="42.25" as="geometry" />
        </mxCell>
        <mxCell id="xfqVQyS9T09THIxKPvPr-4" value="&lt;span style=&quot;font-size: 15px;&quot;&gt;&lt;b&gt;crm_cust_info&lt;/b&gt;&lt;/span&gt;" style="rounded=1;whiteSpace=wrap;html=1;fillColor=#f5f5f5;strokeColor=#666666;fontColor=#333333;" parent="1" vertex="1">
          <mxGeometry x="800" y="387.75" width="220" height="42.25" as="geometry" />
        </mxCell>
        <mxCell id="xfqVQyS9T09THIxKPvPr-5" style="edgeStyle=orthogonalEdgeStyle;rounded=0;orthogonalLoop=1;jettySize=auto;html=1;exitX=0.5;exitY=1;exitDx=0;exitDy=0;fillColor=#f5f5f5;strokeColor=#666666;" parent="1" source="xfqVQyS9T09THIxKPvPr-4" target="xfqVQyS9T09THIxKPvPr-4" edge="1">
          <mxGeometry relative="1" as="geometry" />
        </mxCell>
        <mxCell id="xfqVQyS9T09THIxKPvPr-6" value="&lt;span style=&quot;font-size: 15px;&quot;&gt;&lt;b&gt;crm_prod_info&lt;/b&gt;&lt;/span&gt;" style="rounded=1;whiteSpace=wrap;html=1;fillColor=#f5f5f5;strokeColor=#666666;fontColor=#333333;" parent="1" vertex="1">
          <mxGeometry x="800" y="440" width="220" height="42.25" as="geometry" />
        </mxCell>
        <mxCell id="xfqVQyS9T09THIxKPvPr-7" style="edgeStyle=orthogonalEdgeStyle;rounded=0;orthogonalLoop=1;jettySize=auto;html=1;exitX=0.5;exitY=1;exitDx=0;exitDy=0;fillColor=#f5f5f5;strokeColor=#666666;" parent="1" source="xfqVQyS9T09THIxKPvPr-3" target="xfqVQyS9T09THIxKPvPr-3" edge="1">
          <mxGeometry relative="1" as="geometry" />
        </mxCell>
        <mxCell id="xfqVQyS9T09THIxKPvPr-8" value="&lt;span style=&quot;font-size: 15px;&quot;&gt;&lt;b&gt;erp_cust_az12&lt;/b&gt;&lt;/span&gt;" style="rounded=1;whiteSpace=wrap;html=1;fillColor=#f5f5f5;strokeColor=#666666;fontColor=#333333;" parent="1" vertex="1">
          <mxGeometry x="800" y="570" width="220" height="42.25" as="geometry" />
        </mxCell>
        <mxCell id="xfqVQyS9T09THIxKPvPr-9" value="&lt;span style=&quot;font-size: 15px;&quot;&gt;&lt;b&gt;erp_loc_a101&lt;/b&gt;&lt;/span&gt;" style="rounded=1;whiteSpace=wrap;html=1;fillColor=#f5f5f5;strokeColor=#666666;fontColor=#333333;" parent="1" vertex="1">
          <mxGeometry x="800" y="617.75" width="220" height="42.25" as="geometry" />
        </mxCell>
        <mxCell id="xfqVQyS9T09THIxKPvPr-10" value="&lt;span style=&quot;font-size: 15px;&quot;&gt;&lt;b&gt;erp_px_cat_g1v2&lt;/b&gt;&lt;/span&gt;" style="rounded=1;whiteSpace=wrap;html=1;fillColor=#f5f5f5;strokeColor=#666666;fontColor=#333333;" parent="1" vertex="1">
          <mxGeometry x="800" y="667.75" width="220" height="42.25" as="geometry" />
        </mxCell>
        <mxCell id="xfqVQyS9T09THIxKPvPr-13" style="edgeStyle=orthogonalEdgeStyle;rounded=0;orthogonalLoop=1;jettySize=auto;html=1;entryX=0.015;entryY=0.314;entryDx=0;entryDy=0;entryPerimeter=0;" parent="1" source="IBpTmxL7tBnuTXEfbDv2-49" target="xfqVQyS9T09THIxKPvPr-2" edge="1">
          <mxGeometry relative="1" as="geometry" />
        </mxCell>
        <mxCell id="xfqVQyS9T09THIxKPvPr-14" style="edgeStyle=orthogonalEdgeStyle;rounded=0;orthogonalLoop=1;jettySize=auto;html=1;entryX=0.005;entryY=0.593;entryDx=0;entryDy=0;entryPerimeter=0;" parent="1" source="IBpTmxL7tBnuTXEfbDv2-61" target="xfqVQyS9T09THIxKPvPr-2" edge="1">
          <mxGeometry relative="1" as="geometry" />
        </mxCell>
        <mxCell id="xfqVQyS9T09THIxKPvPr-15" style="edgeStyle=orthogonalEdgeStyle;rounded=0;orthogonalLoop=1;jettySize=auto;html=1;entryX=0.005;entryY=0.695;entryDx=0;entryDy=0;entryPerimeter=0;" parent="1" source="IBpTmxL7tBnuTXEfbDv2-62" target="xfqVQyS9T09THIxKPvPr-2" edge="1">
          <mxGeometry relative="1" as="geometry" />
        </mxCell>
        <mxCell id="xfqVQyS9T09THIxKPvPr-16" style="edgeStyle=orthogonalEdgeStyle;rounded=0;orthogonalLoop=1;jettySize=auto;html=1;entryX=0;entryY=0.804;entryDx=0;entryDy=0;entryPerimeter=0;" parent="1" source="IBpTmxL7tBnuTXEfbDv2-63" target="xfqVQyS9T09THIxKPvPr-2" edge="1">
          <mxGeometry relative="1" as="geometry" />
        </mxCell>
        <mxCell id="xfqVQyS9T09THIxKPvPr-17" style="edgeStyle=orthogonalEdgeStyle;rounded=0;orthogonalLoop=1;jettySize=auto;html=1;entryX=-0.005;entryY=0.098;entryDx=0;entryDy=0;entryPerimeter=0;" parent="1" source="IBpTmxL7tBnuTXEfbDv2-44" target="xfqVQyS9T09THIxKPvPr-2" edge="1">
          <mxGeometry relative="1" as="geometry" />
        </mxCell>
        <mxCell id="DFRw9lvJkXqqdmMoYLXg-1" value="&lt;span style=&quot;font-size: 15px;&quot;&gt;&lt;b&gt;&amp;nbsp;Gold Layer&lt;/b&gt;&lt;/span&gt;" style="rounded=0;whiteSpace=wrap;html=1;fillColor=#fff2cc;strokeColor=#d6b656;" vertex="1" parent="1">
          <mxGeometry x="1200" y="270" width="120" height="30" as="geometry" />
        </mxCell>
        <mxCell id="DFRw9lvJkXqqdmMoYLXg-2" value="" style="rounded=1;whiteSpace=wrap;html=1;fillColor=none;strokeColor=#d6b656;perimeterSpacing=0;" vertex="1" parent="1">
          <mxGeometry x="1160" y="315" width="240" height="465" as="geometry" />
        </mxCell>
        <mxCell id="DFRw9lvJkXqqdmMoYLXg-3" value="&lt;span style=&quot;font-size: 15px;&quot;&gt;&lt;b&gt;fact_sales&lt;/b&gt;&lt;/span&gt;" style="rounded=1;whiteSpace=wrap;html=1;fillColor=#fff2cc;strokeColor=#d6b656;" vertex="1" parent="1">
          <mxGeometry x="1170" y="352.75" width="220" height="42.25" as="geometry" />
        </mxCell>
        <mxCell id="DFRw9lvJkXqqdmMoYLXg-4" value="&lt;span style=&quot;font-size: 15px;&quot;&gt;&lt;b&gt;dim_customers&lt;/b&gt;&lt;/span&gt;" style="rounded=1;whiteSpace=wrap;html=1;fillColor=#fff2cc;strokeColor=#d6b656;" vertex="1" parent="1">
          <mxGeometry x="1170" y="498.87" width="220" height="42.25" as="geometry" />
        </mxCell>
        <mxCell id="DFRw9lvJkXqqdmMoYLXg-5" style="edgeStyle=orthogonalEdgeStyle;rounded=0;orthogonalLoop=1;jettySize=auto;html=1;exitX=0.5;exitY=1;exitDx=0;exitDy=0;fillColor=#fff2cc;strokeColor=#d6b656;" edge="1" parent="1" source="DFRw9lvJkXqqdmMoYLXg-4" target="DFRw9lvJkXqqdmMoYLXg-4">
          <mxGeometry relative="1" as="geometry" />
        </mxCell>
        <mxCell id="DFRw9lvJkXqqdmMoYLXg-6" value="&lt;span style=&quot;font-size: 15px;&quot;&gt;&lt;b&gt;dim_products&lt;/b&gt;&lt;/span&gt;" style="rounded=1;whiteSpace=wrap;html=1;fillColor=#fff2cc;strokeColor=#d6b656;" vertex="1" parent="1">
          <mxGeometry x="1170" y="621.62" width="220" height="42.25" as="geometry" />
        </mxCell>
        <mxCell id="DFRw9lvJkXqqdmMoYLXg-7" style="edgeStyle=orthogonalEdgeStyle;rounded=0;orthogonalLoop=1;jettySize=auto;html=1;exitX=0.5;exitY=1;exitDx=0;exitDy=0;fillColor=#fff2cc;strokeColor=#d6b656;" edge="1" parent="1" source="DFRw9lvJkXqqdmMoYLXg-3" target="DFRw9lvJkXqqdmMoYLXg-3">
          <mxGeometry relative="1" as="geometry" />
        </mxCell>
        <mxCell id="DFRw9lvJkXqqdmMoYLXg-20" value="" style="endArrow=classic;html=1;rounded=0;exitX=1;exitY=0.75;exitDx=0;exitDy=0;entryX=0;entryY=0.75;entryDx=0;entryDy=0;jumpStyle=gap;" edge="1" parent="1" source="xfqVQyS9T09THIxKPvPr-3" target="DFRw9lvJkXqqdmMoYLXg-3">
          <mxGeometry width="50" height="50" relative="1" as="geometry">
            <mxPoint x="1050" y="470" as="sourcePoint" />
            <mxPoint x="1100" y="420" as="targetPoint" />
          </mxGeometry>
        </mxCell>
        <mxCell id="DFRw9lvJkXqqdmMoYLXg-21" value="" style="endArrow=classic;html=1;rounded=0;entryX=0;entryY=0.25;entryDx=0;entryDy=0;exitX=1;exitY=0.75;exitDx=0;exitDy=0;jumpStyle=gap;" edge="1" parent="1" source="xfqVQyS9T09THIxKPvPr-4" target="DFRw9lvJkXqqdmMoYLXg-4">
          <mxGeometry width="50" height="50" relative="1" as="geometry">
            <mxPoint x="1040" y="420" as="sourcePoint" />
            <mxPoint x="1200" y="435" as="targetPoint" />
          </mxGeometry>
        </mxCell>
        <mxCell id="DFRw9lvJkXqqdmMoYLXg-22" value="" style="endArrow=classic;html=1;rounded=0;exitX=1;exitY=0.75;exitDx=0;exitDy=0;entryX=0;entryY=0.75;entryDx=0;entryDy=0;jumpStyle=gap;" edge="1" parent="1" source="xfqVQyS9T09THIxKPvPr-8" target="DFRw9lvJkXqqdmMoYLXg-4">
          <mxGeometry width="50" height="50" relative="1" as="geometry">
            <mxPoint x="1080" y="550" as="sourcePoint" />
            <mxPoint x="1230" y="565" as="targetPoint" />
          </mxGeometry>
        </mxCell>
        <mxCell id="DFRw9lvJkXqqdmMoYLXg-23" value="" style="endArrow=classic;html=1;rounded=0;exitX=1;exitY=0.5;exitDx=0;exitDy=0;entryX=0;entryY=1;entryDx=0;entryDy=0;jumpStyle=gap;" edge="1" parent="1" source="xfqVQyS9T09THIxKPvPr-9" target="DFRw9lvJkXqqdmMoYLXg-4">
          <mxGeometry width="50" height="50" relative="1" as="geometry">
            <mxPoint x="1080" y="610" as="sourcePoint" />
            <mxPoint x="1230" y="625" as="targetPoint" />
          </mxGeometry>
        </mxCell>
        <mxCell id="DFRw9lvJkXqqdmMoYLXg-24" value="" style="endArrow=classic;html=1;rounded=0;exitX=1;exitY=0.75;exitDx=0;exitDy=0;jumpStyle=gap;" edge="1" parent="1" source="xfqVQyS9T09THIxKPvPr-10" target="DFRw9lvJkXqqdmMoYLXg-6">
          <mxGeometry width="50" height="50" relative="1" as="geometry">
            <mxPoint x="1080" y="680" as="sourcePoint" />
            <mxPoint x="1230" y="695" as="targetPoint" />
          </mxGeometry>
        </mxCell>
        <mxCell id="DFRw9lvJkXqqdmMoYLXg-25" value="" style="endArrow=classic;html=1;rounded=0;exitX=1;exitY=0.75;exitDx=0;exitDy=0;entryX=0.02;entryY=0.679;entryDx=0;entryDy=0;entryPerimeter=0;jumpStyle=gap;" edge="1" parent="1" source="xfqVQyS9T09THIxKPvPr-6" target="DFRw9lvJkXqqdmMoYLXg-2">
          <mxGeometry width="50" height="50" relative="1" as="geometry">
            <mxPoint x="1080" y="480" as="sourcePoint" />
            <mxPoint x="1230" y="495" as="targetPoint" />
          </mxGeometry>
        </mxCell>
      </root>
    </mxGraphModel>
  </diagram>
</mxfile>
